nColumns=19																		
nRows=22																		
DataType=double																		
version=3																		
OpenSimVersion=4.4-2022-07-23-0e9fedc																		
endheader																		
time	ground_force_1_vx	ground_force_1_vy	ground_force_1_vz	ground_force_1_px	ground_force_1_py	ground_force_1_pz	ground_moment_1_mx	ground_moment_1_my	ground_moment_1_mz	ground_force_2_vx	ground_force_2_vy	ground_force_2_vz	ground_force_2_px	ground_force_2_py	ground_force_2_pz	ground_moment_2_mx	ground_moment_2_my	ground_moment_2_mz
    0.00000000000000	    4.90827392200000	  658.48545019999995	   25.96199006000000	    0.77469123077350	    0.00000000000000	    0.41305118296192	    0.00000000000000	   -5.92136149688126	    0.00000000000000	    0.00000000000000	    0.00000000000000	    0.00000000000000	                 NaN	    0.00000000000000	                 NaN	    0.00000000000000	                 NaN	    0.00000000000000
    0.00500000000000	    4.62640667500000	  659.35878649999995	   26.80350432000000	    0.77055135966267	    0.00000000000000	    0.41354854974455	    0.00000000000000	   -4.10807622440263	    0.00000000000000	    0.00000000000000	    0.00000000000000	    0.00000000000000	                 NaN	    0.00000000000000	                 NaN	    0.00000000000000	                 NaN	    0.00000000000000
    0.01000000000000	    5.02907414700000	  660.77343580000002	   27.77806046000000	    0.76585430763244	    0.00000000000000	    0.41393461566465	    0.00000000000000	   -2.59293273163079	    0.00000000000000	    0.00000000000000	    0.00000000000000	    0.00000000000000	                 NaN	    0.00000000000000	                 NaN	    0.00000000000000	                 NaN	    0.00000000000000
    0.01500000000000	    6.27732664300000	  662.66930749999995	   28.73296581000000	    0.76072446777762	    0.00000000000000	    0.41421134008383	    0.00000000000000	   -1.48955406612144	    0.00000000000000	    0.00000000000000	    0.00000000000000	    0.00000000000000	                 NaN	    0.00000000000000	                 NaN	    0.00000000000000	                 NaN	    0.00000000000000
    0.02000000000000	    8.20259098400000	  664.89585680000005	   29.47566055000000	    0.75513489219252	    0.00000000000000	    0.41441681036939	    0.00000000000000	   -0.77466515206210	    0.00000000000000	    0.00000000000000	    0.00000000000000	    0.00000000000000	                 NaN	    0.00000000000000	                 NaN	    0.00000000000000	                 NaN	    0.00000000000000
    0.02500000000000	   10.56868828000000	  667.31092860000001	   29.96667961000000	    0.74923835498659	    0.00000000000000	    0.41458341860244	    0.00000000000000	   -0.34996698774531	    0.00000000000000	    0.00000000000000	    0.00000000000000	    0.00000000000000	                 NaN	    0.00000000000000	                 NaN	    0.00000000000000	                 NaN	    0.00000000000000
    0.03000000000000	   13.26149821000000	  669.89617239999995	   30.36071561000000	    0.74334976998976	    0.00000000000000	    0.41470389546570	    0.00000000000000	   -0.17723345617838	    0.00000000000000	    0.00000000000000	    0.00000000000000	    0.00000000000000	                 NaN	    0.00000000000000	                 NaN	    0.00000000000000	                 NaN	    0.00000000000000
    0.03500000000000	   16.13168510000000	  672.62368400000003	   30.82442468000000	    0.73753250686843	    0.00000000000000	    0.41478001264434	    0.00000000000000	   -0.18095857456689	    0.00000000000000	    0.00000000000000	    0.00000000000000	    0.00000000000000	                 NaN	    0.00000000000000	                 NaN	    0.00000000000000	                 NaN	    0.00000000000000
    0.04000000000000	   19.02539671000000	  675.35387830000002	   31.34889533000000	    0.73159066085431	    0.00000000000000	    0.41485489859410	    0.00000000000000	   -0.26470122227824	    0.00000000000000	    0.00000000000000	    0.00000000000000	    0.00000000000000	                 NaN	    0.00000000000000	                 NaN	    0.00000000000000	                 NaN	    0.00000000000000
    0.04500000000000	   21.99984750000000	  677.99541190000002	   31.80599415000000	    0.72551563174060	    0.00000000000000	    0.41495645837281	    0.00000000000000	   -0.39825279647674	    0.00000000000000	    0.00000000000000	    0.00000000000000	    0.00000000000000	                 NaN	    0.00000000000000	                 NaN	    0.00000000000000	                 NaN	    0.00000000000000
    0.05000000000000	   25.13628041000000	  680.60448420000000	   32.17020587000000	    0.71947609699789	    0.00000000000000	    0.41505890093388	    0.00000000000000	   -0.54186943969603	    0.00000000000000	    0.00000000000000	    0.00000000000000	    0.00000000000000	                 NaN	    0.00000000000000	                 NaN	    0.00000000000000	                 NaN	    0.00000000000000
    0.05500000000000	   28.31853175000000	  683.23384739999995	   32.59582686000000	    0.71352392167151	    0.00000000000000	    0.41513167330802	    0.00000000000000	   -0.66985792041521	    0.00000000000000	    0.00000000000000	    0.00000000000000	    0.00000000000000	                 NaN	    0.00000000000000	                 NaN	    0.00000000000000	                 NaN	    0.00000000000000
    0.06000000000000	   31.48878220000000	  685.74968300000000	   33.21191643000000	    0.70761750170609	    0.00000000000000	    0.41519689847644	    0.00000000000000	   -0.79447537909415	    0.00000000000000	    0.00000000000000	    0.00000000000000	    0.00000000000000	                 NaN	    0.00000000000000	                 NaN	    0.00000000000000	                 NaN	    0.00000000000000
    0.06500000000000	   34.81968175000000	  688.01297050000005	   33.94937852000000	    0.70178480952446	    0.00000000000000	    0.41529092593291	    0.00000000000000	   -0.91998017380293	    0.00000000000000	    0.00000000000000	    0.00000000000000	    0.00000000000000	                 NaN	    0.00000000000000	                 NaN	    0.00000000000000	                 NaN	    0.00000000000000
    0.07000000000000	   38.37442298000000	  690.15056540000000	   34.59224229000000	    0.69603259727295	    0.00000000000000	    0.41538541120297	    0.00000000000000	   -1.04025675817790	    0.00000000000000	    0.00000000000000	    0.00000000000000	    0.00000000000000	                 NaN	    0.00000000000000	                 NaN	    0.00000000000000	                 NaN	    0.00000000000000
    0.07500000000000	   41.98193527000000	  692.30325140000002	   35.00856177000000	    0.69032944731474	    0.00000000000000	    0.41544444426141	    0.00000000000000	   -1.10570929470156	    0.00000000000000	    0.00000000000000	    0.00000000000000	    0.00000000000000	                 NaN	    0.00000000000000	                 NaN	    0.00000000000000	                 NaN	    0.00000000000000
    0.08000000000000	   45.57039779000000	  694.41610479999997	   35.25151957000000	    0.68471368483319	    0.00000000000000	    0.41546788679789	    0.00000000000000	   -1.11291635350058	    0.00000000000000	    0.00000000000000	    0.00000000000000	    0.00000000000000	                 NaN	    0.00000000000000	                 NaN	    0.00000000000000	                 NaN	    0.00000000000000
    0.08500000000000	   49.24949881000000	  696.32623339999998	   35.48203939000000	    0.67923084226566	    0.00000000000000	    0.41548718116907	    0.00000000000000	   -1.12767419415303	    0.00000000000000	    0.00000000000000	    0.00000000000000	    0.00000000000000	                 NaN	    0.00000000000000	                 NaN	    0.00000000000000	                 NaN	    0.00000000000000
    0.09000000000000	   53.01513697000000	  697.96838890000004	   35.77291271000000	    0.67378164530749	    0.00000000000000	    0.41551797283443	    0.00000000000000	   -1.15183898565095	    0.00000000000000	    0.00000000000000	    0.00000000000000	    0.00000000000000	                 NaN	    0.00000000000000	                 NaN	    0.00000000000000	                 NaN	    0.00000000000000
    0.09500000000000	   56.74562798000000	  699.39113559999998	   36.02842489000000	    0.66826640824334	    0.00000000000000	    0.41554413284297	    0.00000000000000	   -1.13788771167160	    0.00000000000000	    0.00000000000000	    0.00000000000000	    0.00000000000000	                 NaN	    0.00000000000000	                 NaN	    0.00000000000000	                 NaN	    0.00000000000000
    0.10000000000000	   60.42926596000000	  700.57132330000002	   36.15412046000000	    0.66273936519694	    0.00000000000000	    0.41556357993348	    0.00000000000000	   -1.06546840656370	    0.00000000000000	    0.00000000000000	    0.00000000000000	    0.00000000000000	                 NaN	    0.00000000000000	                 NaN	    0.00000000000000	                 NaN	    0.00000000000000
    0.10500000000000	   64.14966901000000	  701.36425169999995	   36.20751520000000	    0.65731282540926	    0.00000000000000	    0.41558470809458	    0.00000000000000	   -0.95626872278814	    0.00000000000000	    0.00000000000000	    0.00000000000000	    0.00000000000000	                 NaN	    0.00000000000000	                 NaN	    0.00000000000000	                 NaN	    0.00000000000000
